<?xml version="1.0" encoding="UTF-8"?>
<!DOCTYPE svg PUBLIC "-//W3C//DTD SVG 1.1//EN" "http://www.w3.org/Graphics/SVG/1.1/DTD/svg11.dtd">
<svg version="1.1" xmlns="http://www.w3.org/2000/svg" xmlns:xlink="http://www.w3.org/1999/xlink" x="0" y="0" width="512" height="512" viewBox="0, 0, 512, 512">
  <g id="clapperboard-solid">
    <path d="M436,46 L355.281,46 L354.344,46.938 L235.281,166 L321.625,166 L322.562,165.062 L441.438,46.281 C439.656,46.094 437.875,46 436,46 z M496,166 L496,106 C496,91.844 491.031,78.719 482.875,68.5 L385.375,166 L496,166 z M291.719,46 L205.281,46 L204.344,46.938 L85.281,166 L171.625,166 L172.562,165.062 L291.625,46 z M76,46 C42.906,46 16,72.906 16,106 L16,166 L21.719,166 L22.656,165.062 L141.719,46 L76,46 z M496,196 L16,196 L16,406 C16,439.094 42.906,466 76,466 L436,466 C469.094,466 496,439.094 496,406 L496,196 z" fill="#FFFFFF" id="clapperboard-solid" display="none"/>
    <path d="M286,46 C286,29.406 272.594,16 256,16 C239.406,16 226,29.406 226,46 L226,273.531 L157.188,204.719 C145.469,193 126.438,193 114.719,204.719 C103,216.438 103,235.469 114.719,247.188 L234.719,367.188 C246.438,378.906 265.469,378.906 277.188,367.188 L397.188,247.188 C408.906,235.469 408.906,216.438 397.188,204.719 C385.469,193 366.438,193 354.719,204.719 L286,273.531 L286,46 z M76,346 C42.906,346 16,372.906 16,406 L16,436 C16,469.094 42.906,496 76,496 L436,496 C469.094,496 496,469.094 496,436 L496,406 C496,372.906 469.094,346 436,346 L340.844,346 L298.375,388.469 C274.938,411.906 236.969,411.906 213.531,388.469 L171.156,346 L76,346 z M421,398.5 C433.426,398.5 443.5,408.574 443.5,421 C443.5,433.426 433.426,443.5 421,443.5 C408.574,443.5 398.5,433.426 398.5,421 C398.5,408.574 408.574,398.5 421,398.5 z" fill="#FFFFFF" id="download-solid" display="none"/>
    <path d="M15.021,96.014 C15.021,66.6 38.936,42.685 68.35,42.685 L201.671,42.685 L201.671,149.343 C201.671,164.091 213.587,176.007 228.336,176.007 L334.993,176.007 L334.993,282.664 L195.005,282.664 C183.923,282.664 175.007,291.58 175.007,302.663 C175.007,313.745 183.923,322.661 195.005,322.661 L334.993,322.661 L334.993,415.986 C334.993,445.4 311.079,469.315 281.664,469.315 L68.35,469.315 C38.936,469.315 15.021,445.4 15.021,415.986 L15.021,96.014 z M334.993,322.661 L334.993,282.664 L426.735,282.664 L394.238,250.167 C386.405,242.335 386.405,229.669 394.238,221.92 C402.071,214.17 414.736,214.087 422.486,221.92 L489.146,288.581 C496.979,296.413 496.979,309.079 489.146,316.828 L422.486,383.489 C414.653,391.322 401.987,391.322 394.238,383.489 C386.489,375.656 386.405,362.991 394.238,355.241 L426.735,322.744 L334.993,322.744 z M334.993,149.343 L228.336,149.343 L228.336,42.685 L334.993,149.343 z" fill="#FFFFFF" id="file-export-solid" display="none"/>
    <path d="M286.001,118.45 L286.001,345.993 C286.001,362.587 272.595,375.994 256,375.994 C239.405,375.994 225.999,362.587 225.999,345.993 L225.999,118.45 L157.183,187.266 C145.463,198.986 126.431,198.986 114.712,187.266 C102.993,175.547 102.993,156.515 114.712,144.795 L234.718,24.79 C246.437,13.07 265.469,13.07 277.189,24.79 L397.194,144.795 C408.914,156.515 408.914,175.547 397.194,187.266 C385.475,198.986 366.443,198.986 354.724,187.266 L286.001,118.45 z M75.991,345.993 L195.997,345.993 C195.997,379.088 222.905,405.996 256,405.996 C289.095,405.996 316.003,379.088 316.003,345.993 L436.009,345.993 C469.104,345.993 496.012,372.9 496.012,405.996 L496.012,435.997 C496.012,469.092 469.104,496 436.009,496 L75.991,496 C42.896,496 15.988,469.092 15.988,435.997 L15.988,405.996 C15.988,372.9 42.896,345.993 75.991,345.993 z M421.008,443.497 C433.435,443.497 443.509,433.423 443.509,420.996 C443.509,408.569 433.435,398.495 421.008,398.495 C408.581,398.495 398.507,408.569 398.507,420.996 C398.507,433.423 408.581,443.497 421.008,443.497 z" fill="#FFFFFF" id="upload-solid" display="none"/>
    <path d="M16,149.333 C16,119.917 39.917,96 69.333,96 L282.667,96 C312.083,96 336,119.917 336,149.333 L336,362.667 C336,392.083 312.083,416 282.667,416 L69.333,416 C39.917,416 16,392.083 16,362.667 L16,149.333 z M481.917,125.833 C490.583,130.5 496,139.5 496,149.333 L496,362.667 C496,372.5 490.583,381.5 481.917,386.167 C473.25,390.833 462.75,390.333 454.5,384.833 L374.5,331.5 L362.667,323.583 L362.667,309.333 L362.667,202.667 L362.667,188.417 L374.5,180.5 L454.5,127.167 C462.667,121.75 473.167,121.167 481.917,125.833 z" fill="#FFFFFF" id="video-solid" display="none"/>
    <path d="M56.653,216.168 C108.412,166.509 178.624,135.979 256.038,135.979 C333.451,135.979 403.663,166.509 455.422,216.168 C465.024,225.32 480.177,225.02 489.328,215.493 C498.48,205.966 498.18,190.739 488.653,181.587 C428.343,123.602 346.353,87.971 256.038,87.971 C165.722,87.971 83.732,123.602 23.347,181.512 C13.82,190.739 13.52,205.891 22.672,215.493 C31.823,225.095 47.051,225.395 56.578,216.168 z M256.038,256 C298.645,256 337.502,271.828 367.207,298.007 C377.184,306.784 392.336,305.809 401.113,295.907 C409.889,286.005 408.914,270.778 399.013,262.001 C360.906,228.395 310.797,207.992 256.038,207.992 C201.278,207.992 151.169,228.395 113.137,262.001 C103.161,270.778 102.261,285.93 111.037,295.907 C119.814,305.884 134.966,306.784 144.943,298.007 C174.573,271.828 213.43,256 256.113,256 z M304.046,376.021 C304.046,349.507 282.552,328.013 256.038,328.013 C229.523,328.013 208.029,349.507 208.029,376.021 C208.029,402.535 229.523,424.029 256.038,424.029 C282.552,424.029 304.046,402.535 304.046,376.021 z" fill="#FFFFFF" id="wifi-solid" display="none"/>
    <path d="M125.334,32.004 C94.418,32.004 69.335,57.087 69.335,88.003 L69.335,424 C69.335,454.917 94.418,480 125.334,480 L162.667,480 C193.584,480 218.667,454.917 218.667,424 L218.667,88.003 C218.667,57.087 193.584,32.004 162.667,32.004 L125.334,32.004 z M349.333,32.004 C318.416,32.004 293.333,57.087 293.333,88.003 L293.333,424 C293.333,454.917 318.416,480 349.333,480 L386.666,480 C417.582,480 442.665,454.917 442.665,424 L442.665,88.003 C442.665,57.087 417.582,32.004 386.666,32.004 L349.333,32.004 z" fill="#FFFFFF" id="pause-solid" display="none"/>
    <path d="M131.055,39.056 C115.515,29.958 95.854,29.658 80,38.157 C64.146,46.655 54.408,62.652 54.408,80.049 L54.408,431.987 C54.408,449.384 64.277,465.381 80.132,473.88 C95.986,482.378 115.515,481.978 131.055,472.98 L433.443,297.011 C448.458,288.312 457.592,272.815 457.592,256.018 C457.592,239.221 448.458,223.824 433.443,215.025 L131.055,39.056 z" fill="#FFFFFF" id="play-solid" display="none"/>
    <path d="M172.75,32.594 L166,46 L76,46 C59.406,46 46,59.406 46,76 C46,92.594 59.406,106 76,106 L436,106 C452.594,106 466,92.594 466,76 C466,59.406 452.594,46 436,46 L346,46 L339.25,32.594 C334.188,22.375 323.781,16 312.438,16 L199.562,16 C188.219,16 177.812,22.375 172.75,32.594 z M436,136 L76,136 L95.875,453.812 C97.375,477.531 117.063,496 140.781,496 L371.219,496 C394.938,496 414.625,477.531 416.125,453.812 L436,136 z" fill="#FFFFFF" id="trash-solid" display="none"/>
    <path d="M76,46.002 C42.906,46.002 16,72.908 16,106.002 L16,406.002 C16,439.096 42.906,466.002 76,466.002 L436,466.002 C469.094,466.002 496,439.096 496,406.002 L496,106.002 C496,72.908 469.094,46.002 436,46.002 L76,46.002 z M106,106.002 L406,106.002 C422.594,106.002 436,119.408 436,136.002 C436,152.596 422.594,166.002 406,166.002 L106,166.002 C89.406,166.002 76,152.596 76,136.002 C76,119.408 89.406,106.002 106,106.002 z" fill="#FFFFFF" id="window-maximize-solid" display="none"/>
    <path d="M45.995,405.999 C29.401,405.999 15.994,419.405 15.994,435.999 C15.994,452.593 29.401,466 45.995,466 L466.005,466 C482.599,466 496.006,452.593 496.006,435.999 C496.006,419.405 482.599,405.999 466.005,405.999 L45.995,405.999 z" fill="#FFFFFF" id="window-minimize-solid" display="none"/>
    <path d="M210.953,61 C210.953,36.147 231.1,16 255.953,16 C280.806,16 300.953,36.147 300.953,61 C300.953,85.853 280.806,106 255.953,106 C231.1,106 210.953,85.853 210.953,61 z M248.453,346 L248.453,466 C248.453,482.594 235.047,496 218.453,496 C201.859,496 188.453,482.594 188.453,466 L188.453,256.844 L161.641,301.469 C153.109,315.625 134.641,320.219 120.484,311.688 C106.328,303.156 101.734,284.688 110.266,270.531 L164.922,179.594 C181.234,152.5 210.484,135.906 242.078,135.906 L269.922,135.906 C301.516,135.906 330.766,152.5 347.078,179.594 L401.734,270.531 C410.266,284.688 405.672,303.156 391.516,311.688 C377.359,320.219 358.891,315.625 350.359,301.469 L323.453,256.844 L323.453,466 C323.453,482.594 310.047,496 293.453,496 C276.859,496 263.453,482.594 263.453,466 L263.453,346 L248.453,346 z" fill="#5F5F5F" id="person-solid-gray" display="none"/>
    <path d="M210.953,61 C210.953,36.147 231.1,16 255.953,16 C280.806,16 300.953,36.147 300.953,61 C300.953,85.853 280.806,106 255.953,106 C231.1,106 210.953,85.853 210.953,61 z M248.453,346 L248.453,466 C248.453,482.594 235.047,496 218.453,496 C201.859,496 188.453,482.594 188.453,466 L188.453,256.844 L161.641,301.469 C153.109,315.625 134.641,320.219 120.484,311.688 C106.328,303.156 101.734,284.688 110.266,270.531 L164.922,179.594 C181.234,152.5 210.484,135.906 242.078,135.906 L269.922,135.906 C301.516,135.906 330.766,152.5 347.078,179.594 L401.734,270.531 C410.266,284.688 405.672,303.156 391.516,311.688 C377.359,320.219 358.891,315.625 350.359,301.469 L323.453,256.844 L323.453,466 C323.453,482.594 310.047,496 293.453,496 C276.859,496 263.453,482.594 263.453,466 L263.453,346 L248.453,346 z" fill="#FFFFFF" id="person-solid" display="none"/>
    <path d="M360.989,60.995 C360.989,36.145 340.844,16 315.994,16 C291.143,16 270.998,36.145 270.998,60.995 C270.998,85.845 291.143,105.991 315.994,105.991 C340.844,105.991 360.989,85.845 360.989,60.995 z M178.852,180.514 C188.132,171.234 200.787,165.984 214.004,165.984 C215.786,165.984 217.567,166.078 219.254,166.265 L190.007,254.1 C181.289,280.347 191.601,309.219 215.129,323.936 L295.933,374.462 L272.123,457.703 C267.53,473.639 276.81,490.231 292.746,494.824 C308.682,499.418 325.274,490.137 329.867,474.202 L356.771,380.086 C362.301,360.776 354.333,340.153 337.366,329.561 L284.122,296.283 L313.088,219.041 L317.868,230.571 C331.929,264.13 364.645,285.971 401.016,285.971 L420.983,285.971 C437.575,285.971 450.979,272.567 450.979,255.975 C450.979,239.383 437.575,225.978 420.983,225.978 L401.016,225.978 C388.923,225.978 377.956,218.666 373.363,207.511 L367.457,193.45 C353.771,160.547 326.118,135.425 291.996,124.926 L246.345,110.865 C235.94,107.678 225.066,105.991 214.098,105.991 C185.039,105.991 157.104,117.521 136.575,138.143 L114.827,159.797 C103.11,171.515 103.11,190.544 114.827,202.262 C126.545,213.979 145.574,213.979 157.292,202.262 L178.946,180.608 z M146.512,345.965 L91.017,345.965 C74.425,345.965 61.021,359.37 61.021,375.962 C61.021,392.554 74.425,405.959 91.017,405.959 L156.261,405.959 C174.071,405.959 190.194,395.46 197.412,379.243 L208.193,354.964 L199.287,349.34 C182.883,339.122 170.697,324.217 163.76,307.25 L146.512,345.965 z" fill="#FFFFFF" id="person-running-solid" display="none"/>
    <path d="M255.344,61.002 C255.344,36.148 275.492,16 300.346,16 C325.2,16 345.348,36.148 345.348,61.002 C345.348,85.856 325.2,106.004 300.346,106.004 C275.492,106.004 255.344,85.856 255.344,61.002 z M223.936,202.853 C222.998,203.228 222.155,203.603 221.217,203.978 L213.717,207.259 C198.341,214.103 186.528,227.135 181.184,243.074 L178.746,250.386 C173.496,266.137 156.526,274.575 140.776,269.325 C125.025,264.075 116.587,247.105 121.837,231.354 L124.275,224.041 C134.963,192.071 158.589,166.007 189.34,152.319 L196.841,149.038 C216.342,140.412 237.437,135.912 258.813,135.912 C300.627,135.912 338.317,161.038 354.349,199.571 L368.787,234.167 L388.85,244.199 C403.663,251.605 409.664,269.606 402.257,284.419 C394.851,299.233 376.85,305.233 362.036,297.826 L336.91,285.357 C327.253,280.482 319.659,272.419 315.534,262.387 L306.534,240.823 L288.439,302.233 L334.848,352.86 C339.91,358.392 343.473,365.048 345.348,372.361 L366.912,458.709 C370.943,474.741 361.193,491.054 345.067,495.086 C328.941,499.117 312.722,489.367 308.69,473.241 L288.064,390.643 L221.78,318.358 C207.904,303.264 202.747,282.169 207.998,262.387 L223.842,202.853 z M169.746,389.143 L193.184,330.64 C195.153,333.453 197.403,336.078 199.747,338.703 L237.905,380.33 L224.311,414.269 C222.061,419.895 218.686,425.051 214.373,429.364 L156.526,487.21 C144.807,498.93 125.775,498.93 114.056,487.21 C102.336,475.491 102.336,456.459 114.056,444.74 L169.746,389.143 z" fill="#FFFFFF" id="person-walking-solid" display="none"/>
    <path d="M144.083,163.333 C149.833,176.917 161.25,189.333 176,189.333 L336,189.333 C350.75,189.333 362.167,176.917 367.917,163.333 C378,139.417 401.75,122.667 429.333,122.667 C466.167,122.667 496,152.5 496,189.333 C496,214.667 481.833,236.75 461,248 C458,249.583 456,252.583 456,256 C456,259.417 458,262.417 461,264 C481.833,275.25 496,297.333 496,322.667 C496,359.5 466.167,389.333 429.333,389.333 C401.75,389.333 378,372.583 367.917,348.667 C362.167,335.083 350.75,322.667 336,322.667 L176,322.667 C161.25,322.667 149.833,335.083 144.083,348.667 C134,372.583 110.25,389.333 82.667,389.333 C45.833,389.333 16,359.5 16,322.667 C16,297.333 30.167,275.25 51,264 C54,262.417 56,259.417 56,256 C56,252.583 54,249.583 51,248 C30.167,236.75 16,214.667 16,189.333 C16,152.5 45.833,122.667 82.667,122.667 C110.25,122.667 134,139.417 144.083,163.333 z" fill="#FFFFFF" id="bone-solid"/>
  </g>
</svg>
