<?xml version="1.0" encoding="UTF-8"?>
<!DOCTYPE svg PUBLIC "-//W3C//DTD SVG 1.1//EN" "http://www.w3.org/Graphics/SVG/1.1/DTD/svg11.dtd">
<svg version="1.1" xmlns="http://www.w3.org/2000/svg" xmlns:xlink="http://www.w3.org/1999/xlink" x="0" y="0" width="512" height="512" viewBox="0, 0, 512, 512">
  <g id="レイヤー_1">
    <path d="M436,46 L355.281,46 L354.344,46.938 L235.281,166 L321.625,166 L322.562,165.062 L441.438,46.281 C439.656,46.094 437.875,46 436,46 z M496,166 L496,106 C496,91.844 491.031,78.719 482.875,68.5 L385.375,166 L496,166 z M291.719,46 L205.281,46 L204.344,46.938 L85.281,166 L171.625,166 L172.563,165.062 L291.625,46 z M76,46 C42.906,46 16,72.906 16,106 L16,166 L21.719,166 L22.656,165.062 L141.719,46 L76,46 z M496,196 L16,196 L16,406 C16,439.094 42.906,466 76,466 L436,466 C469.094,466 496,439.094 496,406 L496,196 z" fill="#FFFFFF"/>
  </g>
</svg>
