<?xml version="1.0" encoding="UTF-8"?>
<!DOCTYPE svg PUBLIC "-//W3C//DTD SVG 1.1//EN" "http://www.w3.org/Graphics/SVG/1.1/DTD/svg11.dtd">
<svg version="1.1" xmlns="http://www.w3.org/2000/svg" xmlns:xlink="http://www.w3.org/1999/xlink" x="0" y="0" width="512" height="512" viewBox="0, 0, 512, 512">
  <g id="clapperboard-solid">
    <path d="M436,46 L355.281,46 L354.344,46.938 L235.281,166 L321.625,166 L322.562,165.062 L441.438,46.281 C439.656,46.094 437.875,46 436,46 z M496,166 L496,106 C496,91.844 491.031,78.719 482.875,68.5 L385.375,166 L496,166 z M291.719,46 L205.281,46 L204.344,46.938 L85.281,166 L171.625,166 L172.562,165.062 L291.625,46 z M76,46 C42.906,46 16,72.906 16,106 L16,166 L21.719,166 L22.656,165.062 L141.719,46 L76,46 z M496,196 L16,196 L16,406 C16,439.094 42.906,466 76,466 L436,466 C469.094,466 496,439.094 496,406 L496,196 z" fill="#FFFFFF" id="clapperboard-solid" display="none"/>
    <path d="M286,46 C286,29.406 272.594,16 256,16 C239.406,16 226,29.406 226,46 L226,273.531 L157.188,204.719 C145.469,193 126.438,193 114.719,204.719 C103,216.438 103,235.469 114.719,247.188 L234.719,367.188 C246.438,378.906 265.469,378.906 277.188,367.188 L397.188,247.188 C408.906,235.469 408.906,216.438 397.188,204.719 C385.469,193 366.438,193 354.719,204.719 L286,273.531 L286,46 z M76,346 C42.906,346 16,372.906 16,406 L16,436 C16,469.094 42.906,496 76,496 L436,496 C469.094,496 496,469.094 496,436 L496,406 C496,372.906 469.094,346 436,346 L340.844,346 L298.375,388.469 C274.938,411.906 236.969,411.906 213.531,388.469 L171.156,346 L76,346 z M421,398.5 C433.426,398.5 443.5,408.574 443.5,421 C443.5,433.426 433.426,443.5 421,443.5 C408.574,443.5 398.5,433.426 398.5,421 C398.5,408.574 408.574,398.5 421,398.5 z" fill="#FFFFFF" id="download-solid" display="none"/>
    <path d="M15.021,96.014 C15.021,66.6 38.936,42.685 68.35,42.685 L201.671,42.685 L201.671,149.343 C201.671,164.091 213.587,176.007 228.336,176.007 L334.993,176.007 L334.993,282.664 L195.005,282.664 C183.923,282.664 175.007,291.58 175.007,302.663 C175.007,313.745 183.923,322.661 195.005,322.661 L334.993,322.661 L334.993,415.986 C334.993,445.4 311.079,469.315 281.664,469.315 L68.35,469.315 C38.936,469.315 15.021,445.4 15.021,415.986 L15.021,96.014 z M334.993,322.661 L334.993,282.664 L426.735,282.664 L394.238,250.167 C386.405,242.335 386.405,229.669 394.238,221.92 C402.071,214.17 414.736,214.087 422.486,221.92 L489.146,288.581 C496.979,296.413 496.979,309.079 489.146,316.828 L422.486,383.489 C414.653,391.322 401.987,391.322 394.238,383.489 C386.489,375.656 386.405,362.991 394.238,355.241 L426.735,322.744 L334.993,322.744 z M334.993,149.343 L228.336,149.343 L228.336,42.685 L334.993,149.343 z" fill="#FFFFFF" id="file-export-solid" display="none"/>
    <path d="M286.001,118.45 L286.001,345.993 C286.001,362.587 272.595,375.994 256,375.994 C239.405,375.994 225.999,362.587 225.999,345.993 L225.999,118.45 L157.183,187.266 C145.463,198.986 126.431,198.986 114.712,187.266 C102.993,175.547 102.993,156.515 114.712,144.795 L234.718,24.79 C246.437,13.07 265.469,13.07 277.189,24.79 L397.194,144.795 C408.914,156.515 408.914,175.547 397.194,187.266 C385.475,198.986 366.443,198.986 354.724,187.266 L286.001,118.45 z M75.991,345.993 L195.997,345.993 C195.997,379.088 222.905,405.996 256,405.996 C289.095,405.996 316.003,379.088 316.003,345.993 L436.009,345.993 C469.104,345.993 496.012,372.9 496.012,405.996 L496.012,435.997 C496.012,469.092 469.104,496 436.009,496 L75.991,496 C42.896,496 15.988,469.092 15.988,435.997 L15.988,405.996 C15.988,372.9 42.896,345.993 75.991,345.993 z M421.008,443.497 C433.435,443.497 443.509,433.423 443.509,420.996 C443.509,408.569 433.435,398.495 421.008,398.495 C408.581,398.495 398.507,408.569 398.507,420.996 C398.507,433.423 408.581,443.497 421.008,443.497 z" fill="#FFFFFF" id="upload-solid" display="none"/>
    <path d="M16,149.333 C16,119.917 39.917,96 69.333,96 L282.667,96 C312.083,96 336,119.917 336,149.333 L336,362.667 C336,392.083 312.083,416 282.667,416 L69.333,416 C39.917,416 16,392.083 16,362.667 L16,149.333 z M481.917,125.833 C490.583,130.5 496,139.5 496,149.333 L496,362.667 C496,372.5 490.583,381.5 481.917,386.167 C473.25,390.833 462.75,390.333 454.5,384.833 L374.5,331.5 L362.667,323.583 L362.667,309.333 L362.667,202.667 L362.667,188.417 L374.5,180.5 L454.5,127.167 C462.667,121.75 473.167,121.167 481.917,125.833 z" fill="#FFFFFF" id="video-solid"/>
    <path d="M56.653,216.168 C108.412,166.509 178.624,135.979 256.038,135.979 C333.451,135.979 403.663,166.509 455.422,216.168 C465.024,225.32 480.177,225.02 489.328,215.493 C498.48,205.966 498.18,190.739 488.653,181.587 C428.343,123.602 346.353,87.971 256.038,87.971 C165.722,87.971 83.732,123.602 23.347,181.512 C13.82,190.739 13.52,205.891 22.672,215.493 C31.823,225.095 47.051,225.395 56.578,216.168 z M256.038,256 C298.645,256 337.502,271.828 367.207,298.007 C377.184,306.784 392.336,305.809 401.113,295.907 C409.889,286.005 408.914,270.778 399.013,262.001 C360.906,228.395 310.797,207.992 256.038,207.992 C201.278,207.992 151.169,228.395 113.137,262.001 C103.161,270.778 102.261,285.93 111.037,295.907 C119.814,305.884 134.966,306.784 144.943,298.007 C174.573,271.828 213.43,256 256.113,256 z M304.046,376.021 C304.046,349.507 282.552,328.013 256.038,328.013 C229.523,328.013 208.029,349.507 208.029,376.021 C208.029,402.535 229.523,424.029 256.038,424.029 C282.552,424.029 304.046,402.535 304.046,376.021 z" fill="#FFFFFF" id="wifi-solid" display="none"/>
  </g>
</svg>
